# xmcd
# 
# Track frame offsets:
#     150
#     13171
#     26415
#     42930
#     65402
#     82274
#     100257
#     120471
#     136488
#     156044
#     175715
#     195124
#     223061
# 
# Disc length: 3204
# 
# Revision: 1
# Processed by: cddbd v1.5.2PL0 Copyright (c) Steve Scherf et al.
# Submitted via: BonkEnc v1.0
# 
DISCID=a90c820d
DTITLE=Big Daddy Wilson - Thumb A Ride
DYEAR=2011
DGENRE=Blues
TTITLE0=Thumb A Ride
TTITLE1=Baby Don't Like
TTITLE2=This Is How I Live
TTITLE3=Anna Mae
TTITLE4=Sweet Tooth
TTITLE5=It Don't Get No Better
TTITLE6=Who's Dat Knocking
TTITLE7=Four Daughters And A Strong Loving Wife
TTITLE8=Cold Is The Wind
TTITLE9=Drop Down Here
TTITLE10=Way Back Yonder
TTITLE11=Brother Blood
TTITLE12=If You Were Mine
EXTD=
EXTT0=
EXTT1=
EXTT2=
EXTT3=
EXTT4=
EXTT5=
EXTT6=
EXTT7=
EXTT8=
EXTT9=
EXTT10=
EXTT11=
EXTT12=
PLAYORDER=
